<svg width="682" height="417" viewBox="0 0 682 417" fill="none" xmlns="http://www.w3.org/2000/svg">
<path d="M461.561 198.606C461.755 200.784 461.886 202.98 461.951 205.192L461.29 205.212C461.322 206.304 461.338 207.4 461.338 208.5C461.338 209.6 461.322 210.696 461.29 211.788L461.951 211.808C461.886 214.02 461.755 216.216 461.561 218.394L460.902 218.335C460.707 220.525 460.447 222.696 460.125 224.846L460.779 224.944C460.451 227.131 460.059 229.297 459.604 231.44L458.957 231.303C458.501 233.452 457.981 235.578 457.401 237.678L458.039 237.854C457.451 239.982 456.801 242.085 456.09 244.159L455.464 243.945C454.753 246.019 453.981 248.066 453.151 250.082L453.763 250.334C452.923 252.373 452.023 254.382 451.066 256.357L450.471 256.068C449.515 258.041 448.502 259.98 447.433 261.884L448.01 262.208C446.931 264.13 445.796 266.016 444.607 267.864L444.051 267.505C442.866 269.347 441.627 271.15 440.337 272.913L440.871 273.303C439.57 275.081 438.218 276.817 436.815 278.51L436.305 278.087C434.909 279.772 433.463 281.414 431.97 283.011L432.453 283.463C430.95 285.071 429.399 286.632 427.802 288.146L427.347 287.666C425.76 289.17 424.128 290.627 422.453 292.035L422.878 292.541C421.194 293.956 419.467 295.32 417.699 296.632L417.305 296.101C415.55 297.403 413.755 298.653 411.922 299.849L412.283 300.404C410.443 301.604 408.564 302.751 406.649 303.84L406.321 303.265C404.424 304.345 402.49 305.369 400.523 306.335L400.815 306.929C398.845 307.897 396.841 308.807 394.805 309.657L394.55 309.046C392.538 309.886 390.496 310.667 388.424 311.387L388.642 312.012C386.57 312.732 384.47 313.391 382.344 313.986L382.166 313.349C380.068 313.937 377.944 314.463 375.797 314.924L375.936 315.572C373.794 316.032 371.629 316.43 369.442 316.762L369.342 316.108C367.193 316.435 365.023 316.698 362.834 316.896L362.894 317.555C360.716 317.752 358.52 317.884 356.308 317.951L356.288 317.289C355.196 317.322 354.1 317.338 353 317.338C351.9 317.338 350.804 317.322 349.712 317.289L349.692 317.951C347.48 317.884 345.284 317.752 343.106 317.555L343.166 316.896C340.977 316.698 338.807 316.435 336.658 316.108L336.558 316.762C334.371 316.43 332.206 316.032 330.064 315.572L330.203 314.924C328.056 314.462 325.932 313.937 323.834 313.349L323.656 313.986C321.53 313.391 319.43 312.732 317.358 312.012L317.576 311.387C315.504 310.667 313.462 309.886 311.45 309.046L311.195 309.657C309.159 308.807 307.155 307.897 305.185 306.929L305.477 306.335C303.51 305.369 301.576 304.345 299.679 303.265L299.351 303.84C297.436 302.751 295.557 301.604 293.717 300.404L294.078 299.849C292.245 298.653 290.45 297.403 288.695 296.101L288.301 296.632C286.533 295.32 284.806 293.956 283.122 292.541L283.547 292.035C281.872 290.627 280.24 289.17 278.653 287.666L278.198 288.146C276.601 286.632 275.05 285.071 273.547 283.463L274.03 283.011C272.537 281.414 271.091 279.772 269.695 278.087L269.185 278.51C267.782 276.817 266.43 275.081 265.129 273.304L265.663 272.913C264.373 271.15 263.134 269.347 261.949 267.505L261.393 267.864C260.204 266.016 259.069 264.13 257.99 262.208L258.567 261.884C257.498 259.98 256.485 258.041 255.529 256.068L254.934 256.357C253.977 254.382 253.077 252.373 252.237 250.334L252.849 250.082C252.019 248.066 251.247 246.019 250.536 243.945L249.91 244.159C249.199 242.085 248.549 239.982 247.961 237.854L248.599 237.678C248.019 235.578 247.499 233.452 247.043 231.303L246.396 231.44C245.941 229.297 245.549 227.131 245.221 224.944L245.875 224.846C245.553 222.696 245.293 220.525 245.098 218.335L244.439 218.394C244.245 216.216 244.114 214.02 244.049 211.808L244.71 211.788C244.678 210.696 244.662 209.6 244.662 208.5C244.662 207.4 244.678 206.304 244.71 205.212L244.049 205.192C244.114 202.98 244.245 200.784 244.439 198.606L245.098 198.665C245.293 196.475 245.553 194.304 245.875 192.154L245.221 192.056C245.549 189.869 245.941 187.703 246.396 185.56L247.043 185.697C247.499 183.548 248.019 181.422 248.599 179.322L247.961 179.146C248.549 177.018 249.199 174.915 249.91 172.841L250.536 173.055C251.247 170.981 252.019 168.934 252.849 166.918L252.237 166.666C253.077 164.627 253.977 162.618 254.934 160.643L255.529 160.932C256.485 158.959 257.498 157.02 258.567 155.116L257.99 154.792C259.069 152.87 260.204 150.984 261.393 149.136L261.949 149.495C263.134 147.653 264.373 145.85 265.663 144.087L265.129 143.696C266.43 141.919 267.782 140.183 269.185 138.49L269.695 138.913C271.091 137.228 272.537 135.586 274.03 133.989L273.547 133.537C275.05 131.929 276.601 130.368 278.198 128.854L278.653 129.334C280.24 127.83 281.872 126.373 283.547 124.965L283.122 124.459C284.806 123.044 286.533 121.68 288.301 120.368L288.695 120.899C290.45 119.597 292.245 118.347 294.078 117.151L293.717 116.596C295.557 115.396 297.436 114.249 299.351 113.16L299.679 113.735C301.576 112.655 303.51 111.631 305.477 110.665L305.185 110.071C307.155 109.103 309.159 108.193 311.195 107.343L311.45 107.954C313.462 107.114 315.504 106.333 317.576 105.613L317.358 104.988C319.43 104.268 321.53 103.609 323.656 103.014L323.834 103.651C325.932 103.063 328.056 102.537 330.203 102.076L330.064 101.428C332.206 100.968 334.371 100.57 336.558 100.238L336.658 100.892C338.807 100.565 340.977 100.302 343.166 100.104L343.106 99.445C345.284 99.2482 347.48 99.1157 349.692 99.0495L349.712 99.7111C350.804 99.6784 351.9 99.6619 353 99.6619C354.1 99.6619 355.196 99.6784 356.288 99.7111L356.308 99.0495C358.52 99.1157 360.716 99.2482 362.893 99.445L362.834 100.104C365.023 100.302 367.193 100.565 369.342 100.892L369.442 100.238C371.629 100.57 373.794 100.968 375.936 101.428L375.797 102.076C377.944 102.537 380.068 103.063 382.166 103.651L382.344 103.014C384.47 103.609 386.57 104.268 388.642 104.988L388.424 105.613C390.496 106.333 392.538 107.114 394.55 107.954L394.805 107.343C396.841 108.193 398.845 109.103 400.815 110.071L400.523 110.665C402.49 111.631 404.424 112.655 406.321 113.735L406.649 113.16C408.564 114.249 410.443 115.396 412.283 116.596L411.922 117.151C413.755 118.347 415.55 119.597 417.305 120.899L417.699 120.368C419.467 121.68 421.194 123.044 422.878 124.459L422.453 124.965C424.128 126.373 425.76 127.83 427.347 129.334L427.802 128.854C429.399 130.368 430.95 131.929 432.453 133.537L431.97 133.989C433.463 135.586 434.909 137.228 436.305 138.913L436.815 138.49C438.218 140.183 439.57 141.919 440.871 143.696L440.337 144.087C441.627 145.85 442.866 147.653 444.051 149.495L444.607 149.136C445.796 150.984 446.931 152.87 448.01 154.792L447.433 155.116C448.502 157.02 449.515 158.959 450.471 160.932L451.066 160.643C452.023 162.618 452.923 164.627 453.763 166.666L453.151 166.918C453.981 168.934 454.753 170.981 455.464 173.055L456.09 172.841C456.801 174.915 457.451 177.018 458.039 179.146L457.401 179.322C457.981 181.422 458.501 183.548 458.957 185.697L459.604 185.56C460.059 187.703 460.451 189.869 460.779 192.056L460.125 192.154C460.447 194.304 460.707 196.475 460.902 198.665L461.561 198.606Z" stroke="#A6B0BA" stroke-width="1.32381" stroke-dasharray="6.62 6.62"/>
<path opacity="0.04" d="M252.683 240.455C279.71 240.403 308.252 239.123 331.881 251.875C367.011 270.875 383.216 322.448 349.446 351.025C325.138 371.561 301.561 361.575 271.241 365.416C267.32 365.928 262.824 367.106 260.942 370.998C257.597 378.014 265.438 384.928 271.92 388.359C278.35 391.791 285.774 399.729 281.591 406.182C268.679 409.664 255.297 410.023 242.018 410.381C233.968 410.586 225.865 410.791 217.815 410.996C175.366 412.071 132.866 413.198 90.4175 414.273C78.7076 414.581 60.5678 418.422 54.5038 404.748C52.0468 399.217 52.8309 392.661 55.2357 387.079C56.438 384.314 58.0063 381.702 60.2019 379.653C67.2592 372.842 80.0668 371.51 83.4125 362.394C85.7649 356.044 81.8442 348.823 76.1984 344.982C70.5526 341.141 63.5998 339.758 56.8562 338.273C45.9305 335.866 35.057 332.741 25.3859 327.21C15.7148 321.679 7.29837 313.588 3.16855 303.396C0.084259 295.714 -0.38623 287.264 0.241089 279.07C3.53448 235.333 35.9457 209.726 78.2372 203.581C93.2927 201.379 108.557 200.559 123.77 201.225C141.544 201.942 160.729 205.373 172.596 218.33C176.83 222.94 179.967 228.573 184.933 232.414C191.886 237.74 201.243 238.662 210.025 239.174C224.14 240.045 238.307 240.455 252.474 240.455C252.578 240.455 252.631 240.455 252.683 240.455Z" fill="#014363"/>
<path d="M192.213 196.165C189.609 196.468 186.944 196.286 184.339 196.347C178.464 196.407 172.649 196.407 166.774 196.407C150.36 196.407 134.006 196.407 117.592 196.407C103.297 196.407 89.0032 196.347 74.7691 196.347C71.6802 196.347 68.1671 195.923 65.0782 196.407C62.6553 196.771 63.2613 201.434 63.14 203.373C62.5946 212.7 62.4132 222.089 62.2312 231.417C62.1099 239.109 61.7465 286.636 62.2919 294.329C62.2919 294.692 62.5946 295.056 62.958 294.995C77.4947 294.329 92.2135 294.935 106.81 294.995C129.1 295.056 151.329 295.177 173.619 295.298C179.675 295.359 185.672 295.298 191.729 295.479C192.153 295.479 192.395 295.177 192.395 294.813C193.364 284.94 192.759 235.05 192.698 225.178C192.637 216.759 192.759 208.279 192.274 199.86C192.213 199.012 190.881 199.012 190.941 199.86C191.426 208.279 191.305 216.759 191.365 225.178C191.487 235.05 192.032 284.94 191.063 294.813C191.305 294.571 191.547 294.329 191.729 294.147C176.828 293.663 161.808 293.905 146.908 293.784C124.739 293.663 102.571 293.541 80.4023 293.541C74.6478 293.541 68.7726 293.36 63.0187 293.602C63.2613 293.845 63.5034 294.087 63.6847 294.269C63.2007 287.969 63.4427 241.895 63.564 235.596C63.6847 226.813 63.8667 218.091 64.2301 209.309C64.3514 206.159 64.4721 203.07 64.7755 199.92C64.8361 199.193 65.0782 198.406 65.0782 197.679C65.0782 197.255 64.2908 197.679 64.8962 197.74C67.7431 197.8 70.59 197.679 73.437 197.679C103.177 197.679 132.916 197.8 162.716 197.74C169.5 197.74 176.284 197.74 183.068 197.679C186.096 197.679 189.246 197.861 192.274 197.497C193.061 197.437 193.061 196.104 192.213 196.165Z" fill="#A6B0BA"/>
<path d="M205.634 188.22H77.2241V283.535H205.634V188.22Z" fill="#BDC2C5"/>
<rect x="73.9146" y="186.896" width="127.748" height="93.9907" fill="white"/>
<rect x="81.1953" y="198.149" width="59.5715" height="34.4191" rx="1.32381" stroke="#99A4B0" stroke-width="1.32381" stroke-miterlimit="10"/>
<rect x="98.4048" y="243.158" width="30.4477" height="17.2096" rx="1.32381" transform="rotate(90 98.4048 243.158)" stroke="#99A4B0" stroke-width="1.32381" stroke-miterlimit="10"/>
<path d="M81.8569 231.906L140.767 198.811" stroke="#99A4B0" stroke-width="1.32381"/>
<path d="M81.8574 243.158L97.7432 273.275" stroke="#99A4B0" stroke-width="1.32381"/>
<path d="M140.436 232.568L80.8645 198.48" stroke="#99A4B0" stroke-width="1.32381"/>
<path d="M81.5265 273.275L97.7432 243.158" stroke="#99A4B0" stroke-width="1.32381"/>
<path d="M202.142 182.927C199.538 183.23 196.873 183.048 194.268 183.108C188.393 183.169 182.578 183.169 176.703 183.169C160.289 183.169 143.935 183.169 127.521 183.169C113.226 183.169 98.9319 183.108 84.6978 183.108C81.6089 183.108 78.0959 182.685 75.0069 183.169C72.584 183.532 73.19 188.196 73.0687 190.135C72.5233 199.462 72.342 208.85 72.16 218.178C72.0386 225.871 71.6752 273.398 72.2206 281.09C72.2206 281.454 72.5233 281.818 72.8867 281.757C87.4234 281.09 102.142 281.696 116.739 281.757C139.029 281.818 161.258 281.939 183.548 282.06C189.604 282.121 195.601 282.06 201.657 282.241C202.081 282.241 202.324 281.939 202.324 281.575C203.293 271.702 202.687 221.812 202.627 211.94C202.566 203.52 202.687 195.041 202.203 186.622C202.142 185.774 200.81 185.774 200.87 186.622C201.355 195.041 201.233 203.52 201.294 211.94C201.415 221.812 201.961 271.702 200.991 281.575C201.233 281.333 201.476 281.09 201.657 280.909C186.757 280.424 171.736 280.666 156.836 280.546C134.667 280.424 112.499 280.303 90.3311 280.303C84.5765 280.303 78.7013 280.122 72.9474 280.364C73.19 280.606 73.4321 280.848 73.6134 281.03C73.1294 274.731 73.3714 228.657 73.4927 222.358C73.6134 213.575 73.7954 204.853 74.1588 196.07C74.2801 192.921 74.4009 189.832 74.7042 186.682C74.7649 185.955 75.0069 185.168 75.0069 184.441C75.0069 184.017 74.2195 184.441 74.8249 184.502C77.6718 184.562 80.5188 184.441 83.3657 184.441C113.105 184.441 142.845 184.562 172.644 184.502C179.428 184.502 186.212 184.502 192.996 184.441C196.025 184.441 199.174 184.623 202.203 184.259C202.99 184.199 202.99 182.866 202.142 182.927Z" fill="#A6B0BA"/>
<path d="M147.895 200.176C157.011 200.92 166.223 200.548 175.339 200.796C176.017 200.796 176.017 199.432 175.339 199.432C166.175 199.185 157.011 199.618 147.895 198.813C147.216 198.751 147.216 200.114 147.895 200.176Z" fill="#A6B0BA"/>
<path d="M105.948 246.51C122.483 247.254 139.194 246.882 155.73 247.13C156.96 247.13 156.96 245.766 155.73 245.766C139.106 245.518 122.483 245.952 105.948 245.146C104.716 245.084 104.716 246.448 105.948 246.51Z" fill="#A6B0BA"/>
<path d="M147.895 214.738C157.011 215.482 166.223 215.11 175.339 215.358C176.017 215.358 176.017 213.994 175.339 213.994C166.175 213.747 157.011 214.18 147.895 213.375C147.216 213.313 147.216 214.676 147.895 214.738Z" fill="#A6B0BA"/>
<path d="M105.948 261.072C122.483 261.816 139.194 261.444 155.73 261.692C156.96 261.692 156.96 260.328 155.73 260.328C139.106 260.08 122.483 260.514 105.948 259.708C104.716 259.646 104.716 261.01 105.948 261.072Z" fill="#A6B0BA"/>
<path d="M147.9 207.501C156.179 207.949 164.408 208.013 172.686 208.077C173.372 208.077 173.372 206.669 172.686 206.669C164.408 206.605 156.129 206.542 147.9 206.094C147.214 206.03 147.214 207.501 147.9 207.501Z" fill="#A6B0BA"/>
<path d="M105.947 253.835C120.806 254.283 135.576 254.347 150.434 254.411C151.665 254.411 151.665 253.003 150.434 253.003C135.576 252.939 120.718 252.875 105.947 252.427C104.716 252.363 104.716 253.835 105.947 253.835Z" fill="#A6B0BA"/>
<path d="M147.9 222.063C156.179 222.511 164.408 222.575 172.686 222.639C173.372 222.639 173.372 221.232 172.686 221.232C164.408 221.167 156.129 221.104 147.9 220.656C147.214 220.592 147.214 222.063 147.9 222.063Z" fill="#A6B0BA"/>
<path d="M105.947 268.397C120.806 268.845 135.576 268.909 150.434 268.973C151.665 268.973 151.665 267.565 150.434 267.565C135.576 267.501 120.718 267.437 105.947 266.989C104.716 266.925 104.716 268.397 105.947 268.397Z" fill="#A6B0BA"/>
<path d="M178.352 200.766C183.538 200.651 188.676 200.881 193.862 201.456C194.554 201.514 194.554 200.249 193.862 200.191C188.725 199.616 183.538 199.386 178.352 199.501C177.661 199.501 177.661 200.766 178.352 200.766Z" fill="#A6B0BA"/>
<path d="M160.896 247.1C170.231 246.985 179.478 247.215 188.814 247.79C190.059 247.847 190.059 246.582 188.814 246.525C179.567 245.95 170.231 245.72 160.896 245.835C159.651 245.835 159.651 247.1 160.896 247.1Z" fill="#A6B0BA"/>
<path d="M178.352 215.328C183.538 215.213 188.676 215.443 193.862 216.018C194.554 216.076 194.554 214.811 193.862 214.753C188.725 214.178 183.538 213.948 178.352 214.063C177.661 214.063 177.661 215.328 178.352 215.328Z" fill="#A6B0BA"/>
<path d="M160.896 261.662C170.231 261.547 179.478 261.777 188.814 262.352C190.059 262.409 190.059 261.144 188.814 261.087C179.567 260.512 170.231 260.282 160.896 260.397C159.651 260.397 159.651 261.662 160.896 261.662Z" fill="#A6B0BA"/>
<path d="M175.714 208.04C179.14 208.388 182.566 208.388 185.945 208.737C186.602 208.795 186.602 207.516 185.945 207.458C182.519 207.109 179.093 207.109 175.714 206.761C175.01 206.644 175.01 207.981 175.714 208.04Z" fill="#A6B0BA"/>
<path d="M156.292 254.373C162.54 254.722 168.787 254.722 174.949 255.071C176.147 255.129 176.147 253.85 174.949 253.792C168.702 253.443 162.454 253.443 156.292 253.094C155.008 252.978 155.008 254.315 156.292 254.373Z" fill="#A6B0BA"/>
<path d="M175.714 222.602C179.14 222.95 182.566 222.95 185.945 223.299C186.602 223.357 186.602 222.078 185.945 222.02C182.519 221.671 179.093 221.671 175.714 221.323C175.01 221.206 175.01 222.543 175.714 222.602Z" fill="#A6B0BA"/>
<path d="M156.292 268.935C162.54 269.284 168.787 269.284 174.949 269.633C176.147 269.691 176.147 268.412 174.949 268.354C168.702 268.005 162.454 268.005 156.292 267.656C155.008 267.54 155.008 268.877 156.292 268.935Z" fill="#A6B0BA"/>
<path d="M165.795 344.034C165.767 343.457 165.621 343.009 165.605 342.68C164.014 333.835 164.273 324.817 164.536 315.882C164.854 303.845 164.502 291.635 165.487 279.731C166.165 272.51 168.622 261.98 174.185 256.667C178.569 252.569 184.402 250.217 190.408 249.715C194.605 249.385 206.761 249.614 208.607 250.184C211.507 251.199 213.938 253.599 214.618 256.498C215.178 258.66 214.713 260.955 214.237 263.044C213.755 265.009 213.28 267.098 212.709 268.943C212.211 270.579 211.505 272.183 211.131 273.813C210.209 277.741 211.564 280.938 213.096 284.374C214.767 288.133 212.597 291.875 211.584 295.643C210.817 298.531 210.676 301.553 211.193 304.502C211.83 308.23 213.449 311.744 213.839 315.484C214.004 317.169 213.966 318.906 213.383 320.505C212.871 321.852 211.94 322.228 212.152 324.035C212.78 330.076 212.27 333.158 208.627 338.046C206.259 341.137 202.716 343.005 200.084 345.778C197.498 348.631 199.492 352.21 194.217 356.682C190.489 359.839 186.733 359.9 180.01 355.893C176.941 353.978 172.234 355.697 169.491 353.683C167.111 352.313 166.287 347.314 165.795 344.034Z" fill="#48321D"/>
<path d="M213.224 316.896C206.456 318.716 197.108 323.331 190.017 322.771C190.23 322.058 191.674 314.469 191.97 313.752C193.995 308.737 194.626 303.088 193.91 297.753C193.932 298.206 199.419 298.061 199.996 298.032C201.026 297.982 202.056 297.931 203.081 297.757C203.981 297.589 205.362 296.96 206.274 297.039C207.774 297.296 206.998 299.62 207.179 300.768C207.484 302.777 208.841 313.435 213.224 316.896Z" fill="#FBE4DE"/>
<path d="M214.559 317.132L210.907 300.349L197.996 285.023L192.309 289.244L194.021 319.688C196.433 323.507 213.453 320.524 214.559 317.132Z" fill="#FFD1C5"/>
<path d="M195.162 303.433C196.628 299.23 195.784 301.668 195.016 297.368C195.038 297.821 201.769 297.615 202.477 297.58C203.741 297.518 205.005 297.456 206.263 297.27C207.369 297.092 208.769 296.693 209.887 296.762C211.723 297.002 210.699 298.209 210.907 299.356C211.087 299.925 211.4 303.065 211.9 304.982C209.372 305.106 205.139 305.437 202.633 304.982C201.919 304.893 200.363 304.616 199.655 304.651C198.548 304.829 198.033 305.793 197.669 306.637C196.282 309.349 196.487 311.836 194.481 314.331C193.953 314.935 193.425 315.539 192.424 315.795C191.576 316.085 190.446 315.768 190.161 315.121C189.835 314.683 190.11 314.091 190.239 313.63C190.723 312.12 191.352 310.478 191.835 308.967C192.324 307.58 193.244 306.708 194.043 305.43C194.324 304.962 194.561 304.619 194.842 304.151C195.133 303.889 195.37 303.547 195.657 303.202C195.657 303.202 195.657 303.202 195.663 303.326" fill="#F0B6A7"/>
<path d="M218.267 267.186C226.794 277.631 223.989 292.847 214.155 299.526C204.319 306.164 190.184 302.645 182.573 291.494C175.042 280.298 176.808 265.794 186.685 259.154C192.758 254.973 206.484 252.687 218.267 267.186Z" fill="#FFD1C5"/>
<path d="M210.968 273.364C211.529 272.983 211.676 272.219 211.295 271.657C210.914 271.095 210.149 270.949 209.587 271.33C209.026 271.711 208.879 272.475 209.26 273.037C209.642 273.599 210.406 273.745 210.968 273.364Z" fill="#1A2134"/>
<path d="M210.818 285.67C212.797 284.327 213.313 281.633 211.97 279.653C210.626 277.674 207.933 277.158 205.953 278.501C203.973 279.844 203.457 282.538 204.801 284.518C206.144 286.498 208.838 287.014 210.818 285.67Z" fill="#FDBDB0"/>
<path d="M224.746 272.94L221.611 276.399C221.611 276.399 219.085 269.542 218.061 267.196C219.376 268.743 224.825 272.027 224.825 272.027C225.047 272.347 225.064 272.677 224.746 272.94Z" fill="#FFD1C5"/>
<path fill-rule="evenodd" clip-rule="evenodd" d="M222.661 287.614C221.474 288.017 220.049 287.829 218.94 287.068L219.122 286.802C220.15 287.507 221.469 287.679 222.558 287.309L222.661 287.614Z" fill="#A61E78"/>
<path d="M196.946 282.196C198.294 281.882 199.241 280.142 200.091 278.943C202.123 275.745 203.058 272.064 203.448 268.245C203.908 263.306 203.084 258.307 201.937 253.448C194.865 254.126 187.593 254.937 181.845 259.02C175.458 263.547 172.297 271.51 171.524 279.314C171.337 280.562 171.318 281.844 171.384 283.204C171.327 284.57 171.783 286.282 171.473 287.537C171.004 289.749 169.496 291.847 168.944 294.064C167.695 298.917 167.701 304.08 169.095 308.927C169.387 309.822 169.638 310.718 169.812 311.742C170.12 315.486 166.969 318.615 166.201 322.33C165.945 323.829 166.023 325.436 166.179 326.916C166.387 328.641 166.924 330.308 168.021 331.617C171.524 335.658 174.659 327.16 177.197 325.011C180.484 322.124 184.526 320.314 188.041 317.869C195.424 312.591 196.895 303.018 195.116 294.554C194.529 291.857 191.892 286.947 193.116 284.119C193.938 282.344 195.316 282.648 196.793 282.451C196.822 282.202 196.946 282.196 196.946 282.196Z" fill="#48321D"/>
<path d="M193.165 289.321C195.805 289.192 197.84 286.946 197.71 284.306C197.581 281.666 195.335 279.631 192.695 279.761C190.055 279.891 188.02 282.136 188.15 284.776C188.28 287.416 190.525 289.451 193.165 289.321Z" fill="#FFD1C5"/>
<path d="M163.835 306.955C163.154 320.001 161.19 332.985 158.055 345.697C157.571 347.621 157.048 349.588 157.145 351.566C157.201 353.546 157.923 355.618 159.51 356.82C161.87 358.604 165.144 357.989 168.001 357.271C176.565 355.032 185.456 351.869 191.153 345.063C200.676 333.731 198.701 303.631 193.787 290.2C188.057 290.44 186.42 286.554 183.117 284.899C180.363 283.506 177.61 282.113 174.856 280.72C173.586 280.08 172.286 279.689 170.943 279.26C167.546 278.229 165.371 280.194 165.387 284.737C165.33 288.623 164.016 303.063 163.835 306.955Z" fill="#48321D"/>
<path d="M152.579 319.444C149.858 306.625 159.64 295.936 166.124 291.209C167.164 290.45 168.034 289.478 168.569 288.307L176.767 270.37L175.636 352.836L176.543 391.331L170.882 397.986C125.835 402.197 122.263 381.066 128.723 362.729C132.16 352.973 141.199 346.562 147.463 338.331C151.391 333.171 154.108 326.652 152.579 319.444Z" stroke="#453320" stroke-width="0.330953"/>
<path d="M156.75 311.542C154.029 298.724 163.811 288.035 170.296 283.307C171.335 282.549 172.206 281.576 172.741 280.406L180.939 262.468L179.807 344.934L180.715 383.43L175.053 390.084C130.006 394.296 126.435 373.165 132.895 354.828C136.332 345.072 145.37 338.661 151.635 330.43C155.562 325.269 158.28 318.75 156.75 311.542Z" stroke="#453320" stroke-width="0.330953"/>
<path d="M151.149 320.206C147.742 307.552 156.934 296.352 163.155 291.282C164.152 290.469 164.969 289.451 165.44 288.254L172.661 269.901L175.97 352.308L178.949 390.699L173.654 397.649C128.898 404.279 124.195 383.371 129.658 364.713C132.565 354.786 141.245 347.898 147.057 339.341C150.702 333.977 153.064 327.321 151.149 320.206Z" fill="#453320"/>
<path d="M234.603 329.472C238.574 335.032 241.09 341.453 243.936 347.675C246.716 353.897 249.893 360.119 254.725 364.951C252.342 364.487 250.025 364.09 247.642 363.627C244.134 362.965 240.494 362.237 237.714 359.986C235.86 358.464 234.603 356.478 233.478 354.426C229.043 346.616 225.667 338.276 222.358 329.936C221.299 327.288 220.173 324.574 219.578 321.728C218.85 318.22 219.71 317.691 222.887 319.147C227.653 321.331 231.624 325.17 234.603 329.472Z" fill="#10217F"/>
<path d="M200.805 318.787C199.881 318.487 198.949 318.17 197.982 318.079C197.495 318.033 196.907 317.978 196.253 317.919C188.749 317.233 180.998 317.943 174.611 321.941C169.543 325.113 166.492 328.627 164.621 332.059C163.862 333.436 163.241 334.814 163.035 336.322C162.483 339.864 164 343.341 165.586 346.62C167.793 351.343 170 356.065 171.655 360.985C173.31 365.969 173.793 370.954 174.552 376.07C176 386.171 177.724 396.207 179.173 406.308C179.448 408.275 179.724 410.243 180 412.211H252.276C252.276 412.211 243.631 366.896 239.7 351.351C238.587 346.863 236.704 342 234.708 337.17C232.548 331.943 230.092 326.73 226.481 322.378C225.499 321.194 224.336 320.093 222.49 318.783C220.174 317.467 219.38 317.301 217.035 316.908C213.555 316.809 213.38 317.367 210.897 318.219C206.166 319.984 202.62 319.375 200.805 318.787Z" fill="#043ED1"/>
<path d="M185.489 323.912C182.775 321.993 179.068 321.596 175.957 322.787C171.787 324.376 169.14 328.413 166.889 332.252C155.571 351.448 176.288 356.743 174.766 381.101L176.09 390.302C177.612 391.361 157.424 408.769 159.211 409.166C169.868 411.813 180.856 413.137 191.777 413.799C198.33 414.196 204.949 414.329 211.568 414.395C214.679 414.461 229.042 413.468 232.881 411.549C236.72 409.629 238.441 403.341 235.066 401.62C232.087 400.098 200.448 394.339 193.366 390.037C188.534 387.124 184.099 380.572 183.768 375.342C183.04 364.62 187.541 355.618 190.255 345.623C192.373 338.077 192.704 328.877 185.489 323.912Z" fill="#10217F"/>
<path d="M182.908 323.912C180.194 321.993 176.487 321.596 173.376 322.787C169.206 324.376 166.294 328.215 164.308 332.252C155.108 351.183 150.21 369.65 146.238 395.332C145.576 399.701 147.959 404.466 151.6 407.048C153.122 408.107 154.909 408.769 156.696 409.232C177.083 414.329 200.912 415.189 236.39 414.13C237.383 410.622 238.442 407.18 239.435 403.672C223.35 397.913 177.745 391.493 172.979 389.573C174.833 377.461 179.731 365.943 184.496 354.691C188.402 345.557 193.167 330.929 182.908 323.912Z" fill="#043ED1"/>
<path d="M328.981 368.316C329.693 366.456 328.418 364.481 326.432 364.366C313.385 363.55 272.457 361.118 272.463 361.846C272.47 362.64 258.288 399.697 254.987 408.396C254.533 409.525 253.48 410.262 252.289 410.272L203.309 410.689C201.721 410.702 200.408 412.037 200.422 413.626C200.435 415.214 201.77 416.527 203.359 416.513L308.731 415.617C309.922 415.607 310.975 414.87 311.429 413.741L328.981 368.316Z" fill="#CBD2D8"/>
<path d="M234.255 416.153L321.822 415.409C323.146 415.397 324.261 414.263 324.25 412.939L324.221 409.563L231.756 410.349L231.785 413.725C231.797 415.115 232.865 416.165 234.255 416.153Z" fill="#B3BCC4"/>
<path d="M242.225 356.811L327.343 356.087C329.527 356.069 331.264 357.841 331.216 360.026L324.224 409.664L231.759 410.45L238.354 360.882C238.27 358.698 240.041 356.83 242.225 356.811Z" fill="#CBD2D8"/>
<path opacity="0.26" d="M242.159 356.812C250.035 356.745 295.11 356.361 295.11 356.361C271.49 373.243 248.785 396.537 240.496 410.376L231.759 410.45C231.759 410.45 238.047 363.664 238.354 360.882C238.534 358.696 239.975 356.83 242.159 356.812Z" fill="#B3BCC4"/>
<path opacity="0.34" d="M284.031 392.398C287.357 392.37 290.031 389.65 290.003 386.324C289.974 382.997 287.255 380.324 283.928 380.352C280.602 380.38 277.928 383.1 277.956 386.426C277.985 389.753 280.704 392.427 284.031 392.398Z" fill="white"/>
<path opacity="0.43" d="M252.171 277.109C252.837 277.109 253.503 276.887 253.947 276.443L267.039 266.679C269.923 267.123 273.03 267.345 276.137 267.345C300.546 267.345 320.517 253.143 320.517 235.613C320.517 218.083 300.546 203.881 276.137 203.881C251.728 203.881 231.757 218.083 231.757 235.613C231.757 245.155 237.526 254.031 247.511 260.022L249.065 274.446C249.287 275.555 249.952 276.443 250.84 276.887C251.284 277.109 251.728 277.109 252.171 277.109Z" fill="#C3C7CD"/>
<path d="M252.833 273.628C253.499 273.628 254.165 273.406 254.609 272.962L267.701 263.199C270.585 263.643 273.692 263.864 276.799 263.864C301.208 263.864 321.179 249.663 321.179 232.133C321.179 214.603 301.208 200.401 276.799 200.401C252.39 200.401 232.419 214.603 232.419 232.133C232.419 241.674 238.188 250.55 248.174 256.542L249.727 270.965C249.949 272.075 250.614 272.962 251.502 273.406C252.168 273.628 252.39 273.628 252.833 273.628Z" fill="white"/>
<path fill-rule="evenodd" clip-rule="evenodd" d="M307.804 210.104C315.738 215.768 320.593 223.539 320.593 232.062C320.593 240.586 315.738 248.357 307.804 254.02C299.871 259.683 288.899 263.202 276.804 263.202C273.725 263.202 270.648 262.982 267.796 262.544L267.551 262.506L254.226 272.443L254.196 272.474C253.888 272.781 253.387 272.966 252.839 272.966C252.612 272.966 252.487 272.965 252.34 272.944C252.202 272.924 252.027 272.884 251.736 272.788C251.05 272.431 250.509 271.723 250.318 270.804L248.736 256.115L248.484 255.964C238.628 250.051 233.016 241.346 233.016 232.062C233.016 223.539 237.87 215.768 245.805 210.104C253.738 204.441 264.709 200.922 276.804 200.922C288.899 200.922 299.871 204.441 307.804 210.104ZM308.491 209.141C300.337 203.32 289.118 199.739 276.804 199.739C264.49 199.739 253.272 203.32 245.117 209.141C236.964 214.961 231.833 223.056 231.833 232.062C231.833 241.78 237.661 250.758 247.623 256.826L249.147 270.985L249.153 271.011C249.407 272.282 250.177 273.332 251.243 273.865L251.281 273.883L251.321 273.897C251.671 274.013 251.93 274.081 252.173 274.115C252.409 274.149 252.612 274.149 252.823 274.149H252.839C253.608 274.149 254.422 273.899 255 273.342L267.862 263.75C270.709 264.174 273.758 264.385 276.804 264.385C289.118 264.385 300.337 260.804 308.491 254.983C316.645 249.163 321.776 241.069 321.776 232.062C321.776 223.056 316.645 214.961 308.491 209.141Z" fill="#A6B0BA"/>
<path d="M268 222.587C268.872 217.171 272.795 214.463 278.463 215.088C283.912 215.713 287.399 218.63 286.963 223.629C286.091 231.336 278.245 230.503 277.591 237.377L274.539 237.168C275.411 229.461 282.604 230.294 283.258 223.837C283.694 220.504 281.296 218.838 277.809 218.421C274.103 218.005 271.705 219.671 271.052 223.004L268 222.587ZM277.373 245.709C277.155 247.167 276.065 248 274.757 248C273.449 247.792 272.577 246.75 272.577 245.292C272.795 243.834 273.885 243.001 275.193 243.001C276.719 243.001 277.591 244.251 277.373 245.709Z" fill="#A6B0BA"/>
<path d="M90.3009 323.234C94.0886 323.584 107.2 323.7 107.2 323.7C107.2 323.7 106.617 333.843 105.626 339.323C103.878 339.031 88.3779 338.856 88.3779 338.856C88.3779 338.856 89.8347 324.691 90.3009 323.234Z" fill="white"/>
<path d="M90.3005 323.817C95.2536 324.283 100.323 324.225 105.335 324.283C105.917 324.283 106.558 324.341 107.141 324.283C106.908 324.283 106.85 323.467 106.617 323.992C106.5 324.283 106.558 324.749 106.558 325.099C106.384 327.956 106.15 330.812 105.859 333.668C105.743 334.659 105.626 335.65 105.51 336.583C105.51 336.816 105.393 338.798 105.451 338.682C105.335 338.856 105.743 338.565 105.218 338.74C104.927 338.798 104.402 338.682 104.111 338.682C101.78 338.565 99.3909 338.507 97.0601 338.448C94.6709 338.39 92.2818 338.332 89.8926 338.332C89.4264 338.332 88.9603 338.273 88.4941 338.332C89.2516 338.215 88.8437 339.323 89.1351 337.749C90.0092 333.027 89.7178 328.13 90.8832 323.467C91.0581 322.767 89.9509 322.476 89.7761 323.176C88.5524 328.247 88.3776 333.785 87.8531 338.973C87.7948 339.264 88.1445 339.556 88.4358 339.556C94.0299 339.614 99.9737 339.206 105.51 340.022C105.801 340.081 106.151 339.964 106.209 339.614C107.141 334.426 107.491 329.121 107.782 323.875C107.782 323.584 107.491 323.292 107.199 323.292C101.605 323.234 95.8946 323.292 90.3005 322.826C89.543 322.593 89.543 323.758 90.3005 323.817Z" fill="#A6B0BA"/>
<path d="M109.381 351.139L105.258 344.951L101.951 349.739L98.5981 333.931L112.733 342.196L107.342 343.687L111.374 349.739L109.381 351.139Z" fill="#A6B0BA"/>
<path d="M74.8621 350.704L121.901 311.749" stroke="#A6B0BA" stroke-width="1.32381"/>
<circle cx="121.411" cy="312.24" r="2.69496" fill="#A6B0BA"/>
<circle cx="74.862" cy="350.459" r="2.69496" fill="#A6B0BA"/>
<path opacity="0.04" d="M430.217 1.00575C411.892 1.59336 393.514 2.42581 375.241 3.74793C369.063 4.18864 362.626 4.77625 357.487 8.05709C352.347 11.3379 349.336 18.2424 352.607 23.1881C355.462 27.5462 360.602 28.3297 365.274 29.7987C369.479 31.1208 373.684 32.4919 377.941 33.8141C379.809 34.4017 381.678 34.9893 383.339 35.9686C387.493 38.368 390.659 42.922 390.348 47.525C389.231 64.7676 374.867 81.7573 362.645 93.9712C359.497 97.1174 356.247 100.633 353.506 105.111C334.246 136.548 346.134 172.099 372.299 196.093C380.553 203.634 390.572 210.146 401.993 211.371C407.184 211.958 412.376 211.42 417.567 210.979C442.693 208.873 437.433 208.873 462.559 210.93C465.622 211.175 469.619 212.448 469.359 215.337C469.152 217.443 466.556 218.618 464.272 218.765C461.988 218.912 459.6 218.618 457.575 219.597C455.603 220.626 454.824 223.857 456.9 224.69C457.471 224.935 458.094 224.935 458.665 224.935C503.311 224.935 625.358 225.082 639.271 224.935C698.556 224.396 685.058 184.683 664.553 163.089C657.233 155.352 647.162 150.21 639.894 142.375C635.637 137.772 632.47 131.651 632.211 125.481C631.899 118.185 635.533 115.1 640.828 110.693C649.238 103.691 659.102 98.3044 665.435 89.4902C671.042 81.6554 678.621 75.6324 680.49 65.7899C682.255 56.4861 678.102 45.9091 669.225 41.5509C662.113 38.0253 653.599 38.8577 645.553 39.2005C630.705 39.7391 615.858 38.1232 601.063 36.4583C596.391 35.9197 591.563 35.381 587.566 33.0795C584.036 31.0719 579.831 25.4406 581.077 21.2294C582.634 16.0878 589.019 16.6754 593.484 16.5285C596.754 16.4305 600.492 15.5491 601.997 12.758C603.451 10.0158 601.894 6.58806 599.35 4.72729C596.806 2.86652 593.484 2.2789 590.317 1.8382C579.727 0.418135 568.929 0.320199 558.235 0.271232C515.562 -0.0715416 472.838 -0.31638 430.217 1.00575Z" fill="#014363"/>
<mask id="mask0" mask-type="alpha" maskUnits="userSpaceOnUse" x="344" y="0" width="338" height="225">
<path d="M430.217 1.00575C411.892 1.59336 393.514 2.42581 375.241 3.74793C369.063 4.18864 362.626 4.77625 357.487 8.05709C352.347 11.3379 349.336 18.2424 352.607 23.1881C355.462 27.5462 360.602 28.3297 365.274 29.7987C369.479 31.1208 373.684 32.4919 377.941 33.8141C379.809 34.4017 381.678 34.9893 383.339 35.9686C387.493 38.368 390.659 42.922 390.348 47.525C389.231 64.7676 374.867 81.7573 362.645 93.9712C359.497 97.1174 356.247 100.633 353.506 105.111C334.246 136.548 346.134 172.099 372.299 196.093C380.553 203.634 390.572 210.146 401.993 211.371C407.184 211.958 412.376 211.42 417.567 210.979C442.693 208.873 437.433 208.873 462.559 210.93C465.622 211.175 469.619 212.448 469.359 215.337C469.152 217.443 466.556 218.618 464.272 218.765C461.988 218.912 459.6 218.618 457.575 219.597C455.603 220.626 454.824 223.857 456.9 224.69C457.471 224.935 458.094 224.935 458.665 224.935C503.311 224.935 625.358 225.082 639.271 224.935C698.556 224.396 685.058 184.683 664.553 163.089C657.233 155.352 647.162 150.21 639.894 142.375C635.637 137.772 632.47 131.651 632.211 125.481C631.899 118.185 635.533 115.1 640.828 110.693C649.238 103.691 659.102 98.3044 665.435 89.4902C671.042 81.6554 678.621 75.6324 680.49 65.7899C682.255 56.4861 678.102 45.9091 669.225 41.5509C662.113 38.0253 653.599 38.8577 645.553 39.2005C630.705 39.7391 615.858 38.1232 601.063 36.4583C596.391 35.9197 591.563 35.381 587.566 33.0795C584.036 31.0719 579.831 25.4406 581.077 21.2294C582.634 16.0878 589.019 16.6754 593.484 16.5285C596.754 16.4305 600.492 15.5491 601.997 12.758C603.451 10.0158 601.894 6.58806 599.35 4.72729C596.806 2.86652 593.484 2.2789 590.317 1.8382C579.727 0.418135 568.929 0.320199 558.235 0.271232C515.562 -0.0715416 472.838 -0.31638 430.217 1.00575Z" fill="#014363"/>
</mask>
<g mask="url(#mask0)">
<path d="M430.848 -37.771C439.274 -36.702 680.776 -37.6374 681.014 -37.2365C683.388 -32.2926 685.167 72.3337 683.981 89.5708C673.774 89.0355 444.733 90.2386 431.798 90.6388C430.136 72.8677 431.798 -26.8141 432.153 -31.2236" fill="white"/>
<path opacity="0.1" d="M428.906 -37.7691C431.431 -37.4754 563.668 -37.6516 566.194 -37.5929C571.891 -37.5342 577.53 -37.5342 583.227 -37.5342C599.144 -37.5342 615.002 -37.5342 630.919 -37.5342C644.78 -37.5342 658.641 -37.5929 672.444 -37.5929C675.439 -37.5929 678.845 -38.004 681.841 -37.5342C684.19 -37.1817 683.603 -32.6592 683.72 -30.7797C684.249 -21.7348 684.425 -12.631 684.601 -3.58578C684.719 3.87319 685.071 109.188 684.543 116.647C684.543 116.999 684.249 117.352 683.897 117.293C669.801 116.647 655.528 117.234 641.373 117.293C619.759 117.352 598.204 117.469 576.59 117.587C570.717 117.645 435.249 117.587 429.376 117.763C428.965 117.763 428.729 117.469 428.729 117.117C427.79 107.543 428.377 -0.0621948 428.436 -9.63557C428.495 -17.7996 428.377 -26.0223 428.847 -34.1863C428.906 -35.0086 430.198 -35.0086 430.139 -34.1863C429.669 -26.0223 429.787 -17.7996 429.728 -9.63557C429.611 -0.0621948 429.082 107.543 430.022 117.117C429.787 116.882 429.552 116.647 429.376 116.471C443.824 116.001 588.043 116.235 602.491 116.118C623.988 116.001 645.485 115.883 666.981 115.883C672.561 115.883 678.258 115.707 683.838 115.942C683.603 116.177 683.368 116.412 683.192 116.588C683.661 110.48 683.427 6.57502 683.309 0.466648C683.192 -8.04977 683.016 -16.5074 682.663 -25.0238C682.546 -28.078 682.428 -31.0734 682.134 -34.1276C682.075 -34.8324 681.841 -35.5959 681.841 -36.3007C681.841 -36.7119 682.604 -36.3007 682.017 -36.242C679.257 -36.1833 676.496 -36.3007 673.735 -36.3007C644.897 -36.3007 616.059 -36.1833 587.162 -36.242C580.584 -36.242 574.006 -36.242 567.427 -36.3007C564.491 -36.3007 431.784 -36.1245 428.847 -36.4769C428.083 -36.5357 428.083 -37.8278 428.906 -37.7691Z" fill="#A6B0BA"/>
<path d="M681.508 -36.3618H431.243C430.425 13.413 429.28 113.215 431.243 114.224C433.206 115.234 600.547 114.365 681.508 113.804C681.508 85.3177 682.494 17.935 682.494 16.9254C682.494 15.9159 682.735 -19.6768 681.508 -36.3618Z" fill="white"/>
<path d="M606 -31H685.648C685.914 15.4629 686.285 108.624 685.648 109.567C685.011 110.509 632.284 109.698 606 109.174C606.531 78.8095 606.741 18.9007 606.741 17.9583C606.741 17.016 606.741 -14.55 606 -31Z" fill="#F4F5F6"/>
<path d="M517.115 -31.3871H435.487C435.221 15.2581 434.847 108.785 435.487 109.731C436.127 110.677 490.708 109.863 517.115 109.337C517.115 82.6419 517.436 19.4958 517.436 18.5498C517.436 17.6037 517.515 -15.7511 517.115 -31.3871Z" fill="#F4F5F6"/>
<path d="M603.387 -6H519.364C519.089 32.3881 518.705 109.359 519.364 110.137C520.023 110.916 576.205 110.246 603.387 109.813C603.387 87.8436 603.718 35.8756 603.718 35.097C603.718 34.3184 603.798 6.86811 603.387 -6Z" fill="#F4F5F6"/>
<path opacity="0.2" d="M527.805 50.3757C542.217 51.1249 556.783 50.7502 571.196 51C572.268 51 572.268 49.6264 571.196 49.6264C556.706 49.3767 542.217 49.8137 527.805 49.0021C526.732 48.9396 526.732 50.3132 527.805 50.3757Z" fill="#A6B0BA"/>
<path opacity="0.2" d="M527.509 10.3658C536.625 11.1097 545.838 10.7377 554.953 10.9857C555.632 10.9857 555.632 9.62192 554.953 9.62192C545.789 9.37401 536.625 9.80794 527.509 9.00205C526.83 8.94003 526.83 10.3038 527.509 10.3658Z" fill="#A6B0BA"/>
<path opacity="0.2" d="M617.509 70.3658C626.625 71.1097 635.838 70.7377 644.953 70.9857C645.632 70.9857 645.632 69.6219 644.953 69.6219C635.789 69.374 626.625 69.8079 617.509 69.0021C616.83 68.94 616.83 70.3038 617.509 70.3658Z" fill="#A6B0BA"/>
<path opacity="0.2" d="M527.662 79.3757C539.512 80.1249 551.488 79.7502 563.339 80C564.22 80 564.22 78.6264 563.339 78.6264C551.425 78.3767 539.512 78.8137 527.662 78.0021C526.779 77.9396 526.779 79.3132 527.662 79.3757Z" fill="#A6B0BA"/>
<path opacity="0.2" d="M527.501 65.3757C536.469 66.1249 545.532 65.7502 554.499 66C555.167 66 555.167 64.6264 554.499 64.6264C545.484 64.3767 536.469 64.8137 527.501 64.0021C526.833 63.9396 526.833 65.3132 527.501 65.3757Z" fill="#A6B0BA"/>
<path opacity="0.2" d="M527.662 94.3757C539.512 95.1249 551.488 94.7502 563.339 95C564.22 95 564.22 93.6264 563.339 93.6264C551.425 93.3767 539.512 93.8137 527.662 93.0021C526.779 92.9396 526.779 94.3132 527.662 94.3757Z" fill="#A6B0BA"/>
<path opacity="0.2" d="M527.514 57.6908C535.793 58.1387 544.022 58.2027 552.3 58.2667C552.986 58.2667 552.986 56.8589 552.3 56.8589C544.022 56.7949 535.744 56.731 527.514 56.283C526.829 56.219 526.829 57.6908 527.514 57.6908Z" fill="#A6B0BA"/>
<path opacity="0.2" d="M527.514 17.6908C535.793 18.1387 544.022 18.2027 552.3 18.2667C552.986 18.2667 552.986 16.8589 552.3 16.8589C544.022 16.7949 535.744 16.731 527.514 16.283C526.829 16.219 526.829 17.6908 527.514 17.6908Z" fill="#A6B0BA"/>
<path opacity="0.2" d="M617.817 77.42C630.965 77.8711 644.036 77.9355 657.183 78C658.272 78 658.272 76.5821 657.183 76.5821C644.036 76.5176 630.887 76.4532 617.817 76.002C616.728 75.9376 616.728 77.42 617.817 77.42Z" fill="#A6B0BA"/>
<path opacity="0.2" d="M527.678 86.42C538.581 86.8711 549.42 86.9355 560.322 87C561.226 87 561.226 85.5821 560.322 85.5821C549.42 85.5176 538.516 85.4532 527.678 85.002C526.774 84.9376 526.774 86.42 527.678 86.42Z" fill="#A6B0BA"/>
<path opacity="0.2" d="M557.966 10.9557C563.153 10.8407 568.29 11.0707 573.477 11.6457C574.168 11.7032 574.168 10.4382 573.477 10.3806C568.339 9.80563 563.153 9.57561 557.966 9.69062C557.275 9.69062 557.275 10.9557 557.966 10.9557Z" fill="#A6B0BA"/>
<path opacity="0.2" d="M647.966 70.9557C653.153 70.8407 658.29 71.0707 663.477 71.6457C664.168 71.7032 664.168 70.4382 663.477 70.3806C658.339 69.8056 653.153 69.5756 647.966 69.6906C647.275 69.6906 647.275 70.9557 647.966 70.9557Z" fill="#A6B0BA"/>
<path opacity="0.2" d="M567.658 80.3031C574.24 80.1873 580.759 80.419 587.342 80.9981C588.219 81.056 588.219 79.7819 587.342 79.7239C580.822 79.1448 574.24 78.9131 567.658 79.029C566.781 79.029 566.781 80.3031 567.658 80.3031Z" fill="#A6B0BA"/>
<path opacity="0.2" d="M567.658 94.3031C574.24 94.1873 580.759 94.419 587.342 94.9981C588.219 95.056 588.219 93.7819 587.342 93.7239C580.822 93.1448 574.24 92.9131 567.658 93.029C566.781 93.029 566.781 94.3031 567.658 94.3031Z" fill="#A6B0BA"/>
<path opacity="0.2" d="M555.328 58.229C558.754 58.5779 562.18 58.5779 565.559 58.9267C566.216 58.9848 566.216 57.7058 565.559 57.6477C562.134 57.2989 558.707 57.2989 555.328 56.95C554.624 56.8338 554.624 58.1709 555.328 58.229Z" fill="#A6B0BA"/>
<path opacity="0.2" d="M555.328 18.229C558.754 18.5779 562.18 18.5779 565.559 18.9267C566.216 18.9848 566.216 17.7058 565.559 17.6477C562.134 17.2989 558.707 17.2989 555.328 16.95C554.624 16.8338 554.624 18.1709 555.328 18.229Z" fill="#A6B0BA"/>
<path opacity="0.2" d="M563.704 87.2954C568.271 87.6468 572.838 87.6468 577.343 87.9981C578.219 88.0566 578.219 86.7684 577.343 86.7098C572.776 86.3586 568.209 86.3586 563.704 86.0072C562.765 85.8901 562.765 87.2368 563.704 87.2954Z" fill="#A6B0BA"/>
</g>
<path opacity="0.43" d="M398.195 123.746C397.53 123.746 396.864 123.524 396.42 123.08L383.328 113.317C380.443 113.761 377.337 113.982 374.23 113.982C349.821 113.982 329.85 99.7809 329.85 82.2508C329.85 64.7207 349.821 50.519 374.23 50.519C398.639 50.519 418.61 64.7207 418.61 82.2508C418.61 91.7925 412.841 100.668 402.855 106.66L401.302 121.083C401.08 122.193 400.414 123.08 399.527 123.524C399.083 123.746 398.639 123.746 398.195 123.746Z" fill="#C3C7CD"/>
<path d="M397.598 120.266C396.932 120.266 396.266 120.044 395.822 119.6L382.73 109.836C379.846 110.28 376.739 110.502 373.632 110.502C349.223 110.502 329.252 96.3005 329.252 78.7704C329.252 61.2403 349.223 47.0387 373.632 47.0387C398.041 47.0387 418.013 61.2403 418.013 78.7704C418.013 88.3121 412.243 97.1881 402.258 103.179L400.704 117.603C400.482 118.712 399.817 119.6 398.929 120.044C398.263 120.266 398.041 120.266 397.598 120.266Z" fill="white"/>
<path fill-rule="evenodd" clip-rule="evenodd" d="M342.563 56.7417C334.628 62.4052 329.774 70.1763 329.774 78.6999C329.774 87.2236 334.628 94.9946 342.563 100.658C350.496 106.321 361.467 109.84 373.562 109.84C376.642 109.84 379.718 109.62 382.57 109.181L382.815 109.144L396.14 119.081L396.171 119.111C396.478 119.419 396.979 119.604 397.528 119.604C397.755 119.604 397.88 119.603 398.026 119.582C398.165 119.562 398.34 119.521 398.63 119.426C399.316 119.068 399.858 118.361 400.049 117.442L401.631 102.753L401.883 102.602C411.739 96.6885 417.351 87.9833 417.351 78.6999C417.351 70.1763 412.496 62.4052 404.562 56.7417C396.629 51.0792 385.657 47.5597 373.562 47.5597C361.467 47.5597 350.496 51.0792 342.563 56.7417ZM341.875 55.7788C350.03 49.958 361.248 46.3767 373.562 46.3767C385.876 46.3767 397.095 49.958 405.249 55.7788C413.403 61.5987 418.534 69.6935 418.534 78.6999C418.534 88.4181 412.706 97.3957 402.744 103.464L401.219 117.622L401.214 117.648C400.96 118.92 400.189 119.969 399.123 120.502L399.086 120.521L399.046 120.534C398.696 120.651 398.437 120.718 398.194 120.753C397.958 120.787 397.755 120.787 397.544 120.787H397.528C396.759 120.787 395.945 120.537 395.367 119.98L382.505 110.388C379.657 110.812 376.608 111.023 373.562 111.023C361.248 111.023 350.03 107.442 341.875 101.621C333.722 95.8012 328.591 87.7064 328.591 78.6999C328.591 69.6935 333.722 61.5987 341.875 55.7788Z" fill="#A6B0BA"/>
<path d="M353.161 82.9172C355.398 82.9172 357.212 81.1035 357.212 78.8661C357.212 76.6287 355.398 74.8149 353.161 74.8149C350.924 74.8149 349.11 76.6287 349.11 78.8661C349.11 81.1035 350.924 82.9172 353.161 82.9172Z" fill="#A6B0BA"/>
<path d="M373.654 82.917C375.892 82.917 377.705 81.1032 377.705 78.8659C377.705 76.6285 375.892 74.8147 373.654 74.8147C371.417 74.8147 369.603 76.6285 369.603 78.8659C369.603 81.1032 371.417 82.917 373.654 82.917Z" fill="#A6B0BA"/>
<path d="M393.909 82.917C396.146 82.917 397.96 81.1032 397.96 78.8659C397.96 76.6285 396.146 74.8147 393.909 74.8147C391.672 74.8147 389.858 76.6285 389.858 78.8659C389.858 81.1032 391.672 82.917 393.909 82.917Z" fill="#A6B0BA"/>
<path d="M507.72 110.713C503.663 117.786 497.706 115.92 489.484 118.409C486.635 119.259 479.511 115.195 477.545 113.55C477.164 113.285 475.614 109.003 475.731 109.649C475.789 109.972 474.504 99.25 473.919 96.0203C473.802 95.3743 489.989 80.5992 494.742 84.742C496.65 90.9578 499.294 110.238 507.72 110.713Z" fill="#FAB98B"/>
<path d="M475.458 105.634C475.458 105.634 481.079 107.368 493.391 92.4633C493.311 92.0248 493.062 92.07 493.181 91.3017C493.562 91.5662 481.963 95.6679 481.052 96.1664C479.496 96.7818 475.319 94.9635 474.203 96.1664C473.897 98.297 475.458 105.634 475.458 105.634Z" fill="#E6A67C"/>
<path d="M479.416 98.2022C492.923 95.4887 501.384 80.8988 498.313 65.6147C495.243 50.3306 481.804 40.14 468.297 42.8535C454.79 45.5669 446.33 60.1568 449.4 75.4409C452.471 90.725 465.91 100.916 479.416 98.2022Z" fill="#FAB98B"/>
<path opacity="0.15" d="M468.533 84.8304C471.199 84.2948 472.926 81.6996 472.391 79.0338C471.855 76.3679 469.26 74.641 466.594 75.1765C463.928 75.7121 462.201 78.3073 462.737 80.9732C463.272 83.639 465.868 85.3659 468.533 84.8304Z" fill="#F04E3C"/>
<path d="M446.672 82.4587L452.778 83.0209C452.778 83.0209 449.406 77.2937 448.706 69.7482L445.85 81.6067C445.967 82.2527 446.349 82.5172 446.672 82.4587Z" fill="#E6A67C"/>
<path d="M491.824 42.594C493.998 39.8653 496.173 37.1366 495.646 34.2298C495.471 33.2608 494.972 32.3504 494.151 31.4984C491.422 29.324 486.402 29.2323 483.142 31.4905C479.882 33.7487 478.91 37.5939 480.082 40.3837C481.138 42.5276 483.045 43.8501 484.688 45.554C484.629 45.231 484.306 45.2895 484.248 44.9665C484.894 44.8496 486.567 44.8801 487.213 44.7632C489.151 44.4123 490.707 43.7969 491.824 42.594Z" fill="#1B2234"/>
<path d="M497.902 41.1602C498.461 38.7239 498.962 35.9646 497.319 34.2607C496.88 33.6732 496.117 33.1442 495.089 32.9967C492.271 32.1726 488.571 33.8434 487.366 36.3966C485.837 39.0084 486.364 41.9152 488.652 43.5022C490.178 44.5601 492.233 44.8552 493.759 45.9131C493.436 45.9716 493.377 45.6486 493.054 45.7071C493.319 45.3257 494.611 45.0917 495.198 44.6518C496.315 43.4489 497.49 42.569 497.902 41.1602Z" fill="#1B2234"/>
<path d="M490.679 41.8006C493.204 41.0098 495.173 38.9855 496.437 36.7552C497.378 34.5834 496.851 31.6766 494.885 30.0312C494.064 29.1792 492.92 28.3857 491.569 28.2967C490.219 28.2077 488.868 28.1186 487.577 28.3526C484.934 28.4974 481.852 28.0549 479.886 26.4094C482.117 27.6734 484.876 28.1745 487.46 27.7066C488.751 27.4727 490.043 27.2387 491.452 27.6507C492.803 27.7398 494.27 28.4748 495.15 29.6497C497.174 31.6181 498.082 34.7894 496.554 37.4012C495.613 39.573 493.263 41.3328 490.679 41.8006Z" fill="#1B2234"/>
<path d="M491.707 41.948C491.913 41.2435 492.882 41.0681 493.528 40.9511C494.174 40.8342 494.761 40.3942 495.349 39.9543C496.524 39.0744 496.613 37.724 496.32 36.1091C495.529 33.5837 493.447 31.2924 490.893 30.0869C488.34 28.8814 485.522 28.0573 482.557 28.2607C479.915 28.4056 476.685 28.9904 473.867 28.1664C476.626 28.6674 479.416 27.4951 482.382 27.2918C485.347 27.0884 488.429 27.531 491.041 29.0594C493.653 30.5879 496.058 32.8208 496.585 35.7276C496.877 37.3425 496.524 39.0744 495.349 39.9543C494.761 40.3942 494.174 40.8342 493.205 41.0096C492.882 41.0681 491.854 40.9206 491.707 41.948Z" fill="#1B2234"/>
<path fill-rule="evenodd" clip-rule="evenodd" d="M491.296 23.8559C493.283 23.369 495.415 23.4055 497.248 24.0982L497.261 24.103L497.261 24.1034C500.992 25.8216 502.374 29.678 501.589 32.8999C501.196 34.5107 500.213 36.1295 498.928 37.624C497.641 39.1201 496.042 40.5021 494.401 41.6389L494.181 41.3216C495.8 40.2002 497.373 38.8395 498.635 37.3723C499.899 35.9035 500.841 34.3384 501.214 32.8085C501.959 29.7507 500.649 26.092 497.106 24.4568C495.359 23.7987 493.311 23.7595 491.388 24.2307C489.464 24.7022 487.681 25.6806 486.463 27.0384C484.604 29.3252 484.424 31.9594 484.886 34.5106L484.888 34.5211L484.888 34.5317C485.091 37.4828 485.614 40.3755 486.46 43.2102L486.09 43.3205C485.237 40.4619 484.709 37.5446 484.504 34.5688C484.033 31.9567 484.21 29.195 486.166 26.7913L486.172 26.7842L486.172 26.7843C487.451 25.3567 489.309 24.3427 491.296 23.8559Z" fill="#1B2234"/>
<path fill-rule="evenodd" clip-rule="evenodd" d="M492.321 25.3003C495.198 24.0924 498.484 25.2154 500.232 27.2981C501.989 29.3911 502.069 31.7863 501.173 34.3225C500.127 37.8947 497.383 41.4381 492.912 42.9248L492.79 42.5586C497.127 41.1166 499.789 37.6794 500.804 34.209L500.807 34.1987L500.808 34.1988C501.675 31.7473 501.581 29.5056 499.937 27.5462C498.282 25.5755 495.171 24.5215 492.469 25.6569L492.465 25.6585L492.465 25.6585C490.948 26.2584 489.537 27.4935 488.763 28.6101C487.992 29.7224 487.588 31.0969 487.174 32.5101C486.269 36.6458 486.382 40.9328 487.139 45.1104L486.759 45.1792C485.995 40.9616 485.879 36.6195 486.799 32.421L486.802 32.408L486.802 32.4081L486.807 32.3916C487.215 30.9945 487.635 29.5603 488.446 28.3902C489.258 27.2185 490.726 25.9315 492.321 25.3003Z" fill="#1B2234"/>
<path fill-rule="evenodd" clip-rule="evenodd" d="M496.258 25.1847C497.422 25.486 498.48 26.0681 499.143 26.8243L499.153 26.8355L499.152 26.8358C500.52 28.6619 500.544 30.7306 499.849 32.5688C499.163 34.3862 497.827 36.31 496.441 37.9013C495.106 39.8246 493.107 41.8829 490.205 42.7484L490.095 42.3786C492.884 41.5467 494.821 39.5614 496.13 37.6726L496.136 37.6638L496.143 37.6558C497.517 36.0799 498.823 34.1925 499.488 32.4324C500.146 30.692 500.115 28.7704 498.848 27.0731C498.249 26.3925 497.269 25.845 496.161 25.5583C495.052 25.2713 493.836 25.2513 492.777 25.6035C491.722 25.9542 490.884 26.666 490.182 27.5292C489.479 28.3928 488.921 29.3965 488.422 30.321C487.698 31.7664 487.291 33.1563 486.939 34.8765C486.443 37.6085 486.589 40.2167 487.309 42.383L486.943 42.5048C486.199 40.2669 486.054 37.5912 486.56 34.8055L486.561 34.8013L486.561 34.8013C486.916 33.0599 487.333 31.6332 488.078 30.1454L488.081 30.14L488.081 30.1401C488.58 29.2164 489.153 28.1817 489.883 27.2857C490.613 26.3884 491.508 25.6189 492.655 25.2373C493.799 24.8571 495.092 24.883 496.258 25.1847Z" fill="#1B2234"/>
<path d="M481.937 74.0682C484.603 73.5327 486.301 70.7934 485.73 67.9498C485.158 65.1062 482.534 63.2352 479.868 63.7708C477.203 64.3063 475.505 67.0456 476.076 69.8892C476.647 72.7327 479.271 74.6037 481.937 74.0682Z" fill="#FAB98B"/>
<path d="M459.611 93.1247C460.14 92.3618 460.669 91.5988 460.875 90.8944C461.023 89.867 460.26 89.338 459.291 89.5134L456.325 89.7168C454.36 88.0714 453.861 87.1609 453.187 85.2816C454.802 84.9891 456.476 85.0197 458.149 85.0502C459.499 85.1393 460.585 85.6098 461.877 85.3759C465.224 85.437 475.325 82.2736 476.711 73.3498C476.976 72.9684 477.622 72.8514 477.68 73.1744C478.413 75.3767 478.792 79.3109 478.054 84.448C477.344 91.5814 475.315 96.9525 473.023 99.0352C471.642 100.62 462.485 97.9414 459.611 93.1247Z" fill="#1B2234"/>
<path d="M448.771 62.7321C445.75 58.9428 453.629 43.5063 461.851 41.0168C463.318 41.7518 464.724 45.8335 466.25 46.8915C471.326 50.9759 474.049 60.4897 476.831 70.3266C476.948 70.9725 476.302 71.0895 475.921 70.825C472.607 65.4208 468.355 58.5187 466.448 57.1962C464.482 55.5508 460.696 54.9022 458.552 55.9575C457.318 56.5144 456.143 57.3943 455.292 58.2157C452.413 60.7384 450.355 64.1131 448.771 62.7321Z" fill="#1B2234"/>
<path d="M479.977 63.7522C483.207 63.1673 484.967 65.5172 485.142 66.4861C486.197 68.63 485.755 71.7123 483.992 73.0321C483.14 73.8535 482.113 73.706 481.848 74.0874C481.261 74.5274 481.612 76.4652 481.406 77.1697C481.726 80.7809 481.696 82.4543 482.662 85.9486C483.628 89.4428 485.241 92.8201 488.557 94.5546C488.938 94.8191 489.32 95.0836 489.643 95.0251C489.966 94.9666 490.553 94.5267 490.876 94.4682C499.393 89.9239 503.772 82.793 504.63 74.6322C505.22 70.5225 504.518 66.6468 503.758 62.4481C503.056 58.5724 501.268 54.2262 499.068 51.2888C496.312 47.118 491.528 44.6485 487.185 42.7665C482.078 40.3555 476.766 38.649 471.1 38.6743C465.433 38.6996 459.589 41.4256 456.797 46.2677C456.532 46.6491 456.326 47.3536 456.062 47.735C456.09 49.7314 458.262 50.6724 460.052 51.3489C464.337 52.9079 468.152 55.5528 471.173 59.3422C472.816 61.0461 473.166 62.984 474.222 65.1278C474.662 65.7153 476.36 71.4119 476.243 70.766C475.542 66.8903 477.393 64.22 479.977 63.7522Z" fill="#1B2234"/>
<path d="M458.79 92.273C459.436 92.1561 459.642 91.4516 459.906 91.0702C459.848 90.7472 460.112 90.3657 460.054 90.0428L459.408 90.1597C459.408 90.1597 459.466 90.4827 459.202 90.8642C458.937 91.2456 458.35 91.6856 458.027 91.744L458.79 92.273Z" fill="#1B2234"/>
<path d="M459.098 71.8697C459.811 71.7405 460.285 71.0573 460.156 70.3438C460.026 69.6303 459.343 69.1566 458.63 69.2858C457.916 69.415 457.443 70.0982 457.572 70.8117C457.701 71.5252 458.384 71.9989 459.098 71.8697Z" fill="#1B2234"/>
<path d="M502.906 108.276C486.385 122.009 477.363 113.481 475.527 107.186C466.119 106.614 444.599 113.769 428.903 149.476C409.284 194.109 418.823 197.826 422.707 202.006C427.078 206.708 498.202 213.793 535.261 215.739C548.455 215.396 576.015 214.16 580.696 211.962C586.547 209.216 588.612 207.156 583.449 188.272C578.286 169.389 557.379 141.278 542.834 126.816C531.033 115.083 511.855 109.192 502.906 108.276Z" fill="#40A572"/>
<path d="M550.732 184.221C537.056 179.146 522.537 157.047 515.433 143.842C515.078 143.183 515.897 142.579 516.428 143.106C529.275 155.87 551.865 178.247 558.161 184.221C564.954 190.665 562.406 191.544 560.284 191.178H543.303L558.161 188.615L550.732 184.221Z" fill="#369160"/>
<path d="M442.648 190.143C440.159 175.82 451.923 152.213 459.744 139.455C460.136 138.816 461.07 139.219 460.881 139.944C456.322 157.425 448.368 188.117 446.377 196.54C444.229 205.629 442.193 203.878 441.443 201.866L440.629 186.259L442.588 198.749L442.648 190.143Z" fill="#369160"/>
<path d="M546.132 215.839H445.598C443.345 215.839 441.567 214.06 441.567 211.807V210.74H550.163V211.807C550.163 213.942 548.384 215.839 546.132 215.839Z" fill="#B3BCC4"/>
<path d="M547.791 150.255H444.531C442.16 150.255 440.263 152.271 440.263 154.643L441.567 211.214H550.163L552.059 154.761C552.178 152.271 550.281 150.255 547.791 150.255Z" fill="#CBD2D8"/>
<path opacity="0.26" d="M547.91 150.255C539.255 150.255 486.617 150.255 486.617 150.255C512.818 168.756 531.431 195.915 540.678 211.095L550.162 211.332C550.162 211.332 551.585 171.009 551.941 159.861C551.941 158.082 552.059 156.422 552.059 154.643C552.178 152.271 550.281 150.255 547.91 150.255Z" fill="#B3BCC4"/>
<path opacity="0.34" d="M496.22 187.375C499.887 187.375 502.859 184.402 502.859 180.734C502.859 177.066 499.887 174.093 496.22 174.093C492.553 174.093 489.581 177.066 489.581 180.734C489.581 184.402 492.553 187.375 496.22 187.375Z" fill="white"/>
<circle cx="429" cy="286" r="25" fill="#F9C20C"/>
<rect x="414" y="276" width="30" height="19" rx="1.32381" stroke="white" stroke-width="1.32381" stroke-miterlimit="10"/>
<path d="M444 277L428.737 288L414 277" stroke="white" stroke-width="1.32381"/>
</svg>
